<svg version="1" xmlns="http://www.w3.org/2000/svg" width="346.667" height="346.667" viewBox="0 0 260.000000 260.000000"><path d="M214.8 42.8c-1.6.2-2.8.6-2.8 1s-23.8 39.4-52.9 86.7c-29 47.3-52.7 86.2-52.5 86.4.7.8 52.6.3 53.3-.5.7-.8 21-33.6 73.6-119.4 7.6-12.4 16.7-27.1 20.2-32.8 5.7-9.3 6.3-10.8 6.3-15.7 0-3-.3-5.5-.7-5.6-2.8-.2-42.3-.3-44.5-.1zM105.3 46c-.9 1.6-2.1 3-2.5 3-.4 0-.8.6-.8 1.4 0 .8-.3 1.6-.7 1.8-.5.1-5.1 6.1-10.3 13.1-5.2 7-12 16-15 20.1-3 4-6.4 8.5-7.5 10-1.1 1.5-4.1 5.7-6.7 9.2-2.7 3.5-4.8 6.6-4.8 7 0 .4-.6 1.2-1.3 1.8-.8.6-6.1 7.4-11.8 15.1-5.7 7.7-10.7 14.4-11.1 15-.5.5-2.2 2.8-3.8 5-1.6 2.2-3.3 4.4-3.8 5-.4.5-5.2 7.1-10.7 14.5-5.4 7.4-10.3 13.6-10.7 13.8-.4.2-.8 1-.8 1.8s-.7 1.7-1.5 2c-1.2.5-1.5 3.2-1.5 16 0 14 .2 15.4 1.8 15.5 12.5.4 34.5-.1 35.2-.7.6-.7 15.9-20.4 29.4-37.9 1.7-2.2 3.3-4.2 3.6-4.5.3-.3 2.7-3.4 5.5-7 2.7-3.6 5.3-6.6 5.7-6.8.5-.2.8-.8.8-1.4 0-.5.7-1.7 1.6-2.5.9-.9 3.4-4.1 5.7-7.2 2.3-3.1 4.8-6 5.4-6.4.7-.4 1.3-1.2 1.3-1.7 0-.6 1-2 2.2-3.2 2.4-2.4 8.4-3.3 9.1-1.4.2.6.3 13.8.3 29.3-.1 15.6.2 28.3.6 28.3.5 0 .8-.4.8-.8 0-.8 21.2-35.9 23-37.9.5-.7 1-1.4 1-1.7 0-.2 1.8-3.3 4-6.7 2.2-3.5 4.3-7.1 4.7-7.9.3-.8 2-3.5 3.7-6l3-4.4.1-41.6c0-22.8-.1-42.1-.3-42.8-.3-.9-5.4-1.2-20.8-1.2h-20.3l-1.8 3zM255 80.2c-2.4 4-4.7 7.5-5 7.8-.4.3-1 1.2-1.3 2-.4.8-1.5 2.7-2.5 4.1-.9 1.5-4.4 6.9-7.6 12-3.3 5.2-8 12.6-10.6 16.4-2.5 3.9-4.9 7.7-5.3 8.5-.4.8-1.5 2.7-2.5 4.1-.9 1.4-3 4.6-4.6 7-1.5 2.4-3.9 6-5.2 7.9-1.5 2.3-2.3 4.9-2.3 7.5.1 7.3 0 46.9-.1 53.2l-.1 6.3h6.3c24.9.2 33.9.1 34.8-.5.5-.3 1-.3 1 .2 0 .4 2.2.6 4.8.5l4.8-.4.1-71.9c.1-39.5.1-71.9 0-71.9-.2 0-2.2 3.3-4.7 7.2z"/></svg>