<svg width="13" height="13" viewBox="0 0 13 13" fill="none" xmlns="http://www.w3.org/2000/svg">
<path d="M6.5 0C2.91092 0 0 2.91037 0 6.5C0 9.37192 1.86225 11.8083 4.44546 12.668C4.76992 12.7281 4.875 12.5266 4.875 12.3554V11.1453C3.06692 11.5386 2.69046 10.3783 2.69046 10.3783C2.39471 9.62704 1.96842 9.42717 1.96842 9.42717C1.37854 9.02362 2.01338 9.03229 2.01338 9.03229C2.66608 9.07779 3.0095 9.70233 3.0095 9.70233C3.58908 10.6957 4.52996 10.4087 4.901 10.2424C4.95896 9.82258 5.12742 9.5355 5.31375 9.37354C3.87021 9.20833 2.35246 8.65096 2.35246 6.16092C2.35246 5.45079 2.6065 4.87121 3.02196 4.41621C2.95479 4.25208 2.73217 3.59071 3.08533 2.69587C3.08533 2.69587 3.63133 2.52146 4.87337 3.36212C5.39175 3.21804 5.9475 3.146 6.5 3.14329C7.0525 3.146 7.60879 3.21804 8.12825 3.36212C9.36921 2.52146 9.91413 2.69587 9.91413 2.69587C10.2678 3.59125 10.0452 4.25262 9.97804 4.41621C10.3951 4.87121 10.647 5.45133 10.647 6.16092C10.647 8.65746 9.12654 9.20725 7.67921 9.36812C7.91213 9.56962 8.125 9.96504 8.125 10.5717V12.3554C8.125 12.5282 8.229 12.7313 8.55888 12.6674C11.1399 11.8067 13 9.37083 13 6.5C13 2.91037 10.0896 0 6.5 0Z" fill="#333333"/>
</svg>
