<svg width="154" height="65" viewBox="0 0 154 65" fill="none" xmlns="http://www.w3.org/2000/svg">
<path d="M113.075 64.5253H94.229V41.6727L113.075 12.0986V64.5253Z" fill="black" fill-opacity="0.3"/>
<path d="M39.0377 55.6534L28.8071 40.3287L57.8835 1.34473H72.6909V32.263L57.8835 56.4599V34.9516H55.1912L39.0377 55.6534Z" fill="black" fill-opacity="0.3"/>
<path d="M96.9212 0L57.3451 64.5251H76.7293L113.075 5.37709V0H96.9212Z" fill="black"/>
<path d="M116.308 64.5254H135.154L154 34.9514V29.5743L135.154 0.00025177H116.308V5.37735L132.462 29.5743V34.9514L116.308 59.1483V64.5254Z" fill="black"/>
<path d="M37.6916 0H18.8458L0 29.574V34.9511L18.8458 64.5251H37.6916V59.148L21.538 34.9511V29.574L37.6916 5.37709V0Z" fill="black"/>
</svg>
