<svg width="20" height="20" viewBox="0 0 20 20" fill="none" xmlns="http://www.w3.org/2000/svg">
<g clip-path="url(#clip0)">
<path d="M19.311 8.9848C19.6996 8.60612 19.8368 8.05037 19.6692 7.53374C19.5012 7.01712 19.0636 6.64833 18.526 6.57007L13.7464 5.87557C13.5428 5.84592 13.3669 5.71825 13.276 5.53366L11.1391 1.20303C10.8992 0.716447 10.4122 0.414062 9.86952 0.414062C9.3272 0.414062 8.84023 0.716447 8.60029 1.20303L6.46305 5.53405C6.37213 5.71864 6.19584 5.84632 5.99227 5.87596L1.21262 6.57046C0.675439 6.64833 0.237475 7.01752 0.0694834 7.53414C-0.098113 8.05076 0.0390472 8.60652 0.427602 8.98519L3.88586 12.3561C4.03329 12.5 4.10089 12.7071 4.0661 12.9095L3.25026 17.6694C3.17792 18.0884 3.28781 18.4959 3.55897 18.8172C3.98033 19.3181 4.71593 19.4706 5.3041 19.1615L9.5786 16.914C9.75726 16.8203 9.98217 16.8211 10.1604 16.914L14.4353 19.1615C14.6432 19.271 14.865 19.3264 15.0939 19.3264C15.5117 19.3264 15.9077 19.1406 16.1801 18.8172C16.4516 18.4959 16.5611 18.0876 16.4888 17.6694L15.6725 12.9095C15.6378 12.7067 15.7053 12.5 15.8528 12.3561L19.311 8.9848Z" fill="black"/>
</g>
<defs>
<clipPath id="clip0">
<rect width="19.74" height="19.74" fill="white"/>
</clipPath>
</defs>
</svg>
