<svg width="13" height="13" viewBox="0 0 13 13" fill="none" xmlns="http://www.w3.org/2000/svg">
<g clip-path="url(#clip0)">
<path d="M13 2.46848C12.5217 2.68082 12.0077 2.82382 11.4682 2.88827C12.019 2.5584 12.4421 2.03569 12.6409 1.41277C12.1258 1.71827 11.5548 1.94036 10.9471 2.06007C10.4612 1.54169 9.76733 1.21777 9.00033 1.21777C7.27837 1.21777 6.01304 2.82436 6.40196 4.49215C4.186 4.38111 2.22083 3.31944 0.905125 1.70582C0.206375 2.90452 0.54275 4.47265 1.73008 5.26673C1.2935 5.25265 0.881833 5.13294 0.522708 4.93307C0.493458 6.16861 1.37908 7.32452 2.66175 7.58182C2.28638 7.68365 1.87525 7.70748 1.45708 7.62732C1.79617 8.68682 2.78092 9.45761 3.94875 9.47927C2.8275 10.3584 1.41483 10.7511 0 10.5843C1.18029 11.341 2.58267 11.7824 4.0885 11.7824C9.04042 11.7824 11.8381 7.60023 11.6691 3.84919C12.1902 3.47273 12.6425 3.00311 13 2.46848Z" fill="#333333"/>
</g>
<defs>
<clipPath id="clip0">
<rect width="13" height="13" fill="white"/>
</clipPath>
</defs>
</svg>
