<svg width="20" height="20" viewBox="0 0 20 20" fill="none" xmlns="http://www.w3.org/2000/svg">
<g clip-path="url(#clip0)">
<path d="M19.3077 9.09483C19.6962 8.71623 19.8333 8.16059 19.6658 7.64406C19.4978 7.12754 19.0603 6.75882 18.5229 6.68057L13.7442 5.98622C13.5406 5.95658 13.3648 5.82893 13.2739 5.64437L11.1374 1.3142C10.8976 0.827716 10.4107 0.525391 9.86806 0.525391C9.32586 0.525391 8.83897 0.827716 8.59909 1.3142L6.46226 5.64437C6.37137 5.82893 6.19511 5.95658 5.99158 5.98622L1.21287 6.68097C0.675796 6.75882 0.238313 7.12754 0.0703545 7.64406C-0.0972088 8.16059 0.0399244 8.71623 0.428403 9.09483L3.88598 12.4651C4.03338 12.6089 4.10096 12.816 4.06619 13.0183L3.25011 17.7777C3.15842 18.3124 3.3738 18.8424 3.81286 19.1617C4.25153 19.4814 4.82259 19.5229 5.30355 19.2696L9.5772 17.0225C9.75939 16.9268 9.97674 16.9268 10.1589 17.0225L14.433 19.2696C14.6416 19.3794 14.8677 19.4336 15.0926 19.4336C15.3846 19.4336 15.6755 19.3423 15.9237 19.1617C16.3627 18.8424 16.5781 18.3124 16.4864 17.7777L15.6699 13.0187C15.6352 12.816 15.7027 12.6093 15.8502 12.4655L19.3077 9.09483ZM14.8914 13.1523L15.7075 17.9113C15.7486 18.1508 15.6557 18.3796 15.4589 18.5226C15.2617 18.6653 15.0163 18.6827 14.8009 18.5705L10.5269 16.323C10.321 16.2151 10.0941 16.1605 9.86806 16.1605C9.64201 16.1605 9.41557 16.2151 9.20927 16.3234L4.93601 18.5705C4.71984 18.6827 4.47442 18.6653 4.27762 18.5226C4.08081 18.3796 3.98833 18.1512 4.02904 17.9113L4.84512 13.1523C4.92376 12.6931 4.77161 12.2244 4.43807 11.8995L0.980097 8.52891C0.805815 8.35897 0.746536 8.11948 0.822018 7.88829C0.897106 7.65671 1.08561 7.49784 1.32629 7.46267L6.10461 6.76831C6.5658 6.70152 6.96456 6.41224 7.17045 5.99412L9.30728 1.66395C9.41477 1.4458 9.62462 1.31578 9.86767 1.31578C10.1111 1.31578 10.3206 1.4458 10.4285 1.66395L12.5653 5.99412C12.7712 6.41224 13.1695 6.70152 13.6307 6.76831L18.4094 7.46267C18.6501 7.49784 18.8386 7.65671 18.9137 7.88829C18.9888 8.11948 18.9299 8.35897 18.7556 8.52891L15.2981 11.8991C14.9645 12.2244 14.8124 12.6927 14.8914 13.1523Z" fill="black"/>
</g>
<defs>
<clipPath id="clip0">
<rect width="19.7361" height="19.7361" fill="white" transform="translate(0 0.111328)"/>
</clipPath>
</defs>
</svg>
